<svg width="16" height="16" viewBox="0 0 16 16" fill="none" xmlns="http://www.w3.org/2000/svg">
<g clip-path="url(#clip0_436_2)">
<path d="M8.13679 4.18653C8.12659 4.18662 8.11658 4.18837 8.10739 4.19168C8.0982 4.19498 8.09019 4.19976 8.08374 4.20566C8.07728 4.21155 8.07263 4.21844 8.07011 4.22582C8.0676 4.2332 8.06714 4.24088 8.06904 4.24836L11.1509 15.8001C12.6419 15.158 13.9025 14.0774 14.7648 12.7019L8.19772 4.21216C8.19148 4.20426 8.18261 4.19775 8.17191 4.19325C8.16122 4.18875 8.14906 4.18642 8.13679 4.18653Z" fill="#325067"/>
<path d="M7.98646 0.452148C3.56803 0.452148 -0.0136719 4.03386 -0.0136719 8.45215C-0.0136719 9.95508 0.409603 11.4277 1.20797 12.7012L7.87808 4.07805C7.92594 4.01576 8.04664 4.01576 8.0945 4.07805L14.7646 12.7015C15.563 11.428 15.9866 9.95522 15.9866 8.45215C15.9866 4.03386 12.4049 0.452148 7.98646 0.452148Z" fill="#2185D0"/>
</g>
<defs>
<clipPath id="clip0_436_2">
<rect width="16" height="16" fill="white"/>
</clipPath>
</defs>
</svg>
