<svg width="48" height="48" viewBox="0 0 322 307" fill="none" xmlns="http://www.w3.org/2000/svg">
    <path
        d="M210.677 183.789C215.203 183.787 219.685 184.676 223.867 186.407C228.05 188.138 231.85 190.676 235.051 193.875C238.252 197.075 240.792 200.874 242.524 205.056C244.257 209.237 245.149 213.719 245.149 218.245V232.31C245.147 241.095 242.399 249.661 237.289 256.808C213.603 289.947 174.918 306.355 122.521 306.355C70.0928 306.355 31.4383 289.931 7.81363 256.762C2.73208 249.627 0.000877124 241.085 3.40645e-06 232.325V218.23C-0.00200913 213.704 0.887753 209.221 2.61846 205.039C4.34916 200.857 6.88689 197.057 10.0867 193.856C13.2865 190.654 17.0856 188.115 21.2671 186.382C25.4485 184.65 29.9304 183.758 34.4565 183.758H210.661L210.677 183.789ZM122.521 0C142.837 0 162.322 8.07077 176.688 22.4368C191.054 36.8029 199.125 56.2875 199.125 76.6041C199.125 96.9208 191.054 116.405 176.688 130.771C162.322 145.137 142.837 153.208 122.521 153.208C102.204 153.208 82.7194 145.137 68.3534 130.771C53.9873 116.405 45.9165 96.9208 45.9165 76.6041C45.9165 56.2875 53.9873 36.8029 68.3534 22.4368C82.7194 8.07077 102.204 0 122.521 0Z"
        fill="#32FF80"></path>
    <path
        d="M264.703 102.825V62.7786H225.479V46.3495H264.703V6.30342H282.775V46.3495H322V62.7786H282.775V102.825H264.703Z"
        fill="#32FF80"></path>
</svg>