<svg width="35" height="35" viewBox="0 0 35 35" fill="none" xmlns="http://www.w3.org/2000/svg">
<path d="M7 26.8C7 27.1 7.3 27.3 7.6 27.3H12.6C12.9 27.3 13.2 27.1 13.3 26.7L16.5 0.600002V0.5C16.5 0.2 16.3 0 16.1 0H16H10.7C10.4 0 10.3 0.2 10.3 0.5L7 26.8Z" fill="#2088C2"/>
<path d="M28.1 0.5C28.1 0.2 28 0 27.7 0H27.6H22.3C22 0 21.8 0.2 21.8 0.5L18.5 28C18 30.8 16.8 30.8 14.9 30.9C14.1 30.9 13.4 30.9 12.9 31C12.3 31 12.1 31.2 12 31.8L11.7 34V34.2C11.7 34.7 12 34.8 12.4 34.8C13.1 34.9 13.4 35 16 35C20.4 35 24 33.7 24.7 27.8L28.1 0.5Z" fill="#2088C2"/>
</svg>
