<svg width="75" height="75" viewBox="0 0 75 75" fill="none" xmlns="http://www.w3.org/2000/svg">
<rect width="75" height="75" rx="6" fill="#006699"/>
<path fill-rule="evenodd" clip-rule="evenodd" d="M23.1205 63.028V28.5977H11.6765V63.028H23.1205ZM17.3984 23.8969C21.3892 23.8969 23.8731 21.253 23.8731 17.9489C23.7987 14.5705 21.3892 12 17.4741 12C13.5595 12 11 14.5705 11 17.9489C11 21.253 13.4834 23.8969 17.3238 23.8969H17.3984Z" fill="white"/>
<path fill-rule="evenodd" clip-rule="evenodd" d="M29.4528 63.028H40.8967V43.8007C40.8967 42.7716 40.971 41.7436 41.2732 41.008C42.1005 38.9521 43.9835 36.8227 47.1449 36.8227C51.2859 36.8227 52.9425 39.9801 52.9425 44.6086V63.028H64.3854V43.2861C64.3854 32.7107 58.7396 27.7898 51.2103 27.7898C45.0367 27.7898 42.3264 31.2406 40.8205 33.591H40.897V28.5977H29.4531C29.6033 31.8284 29.4528 63.028 29.4528 63.028Z" fill="white"/>
</svg>
