<svg width="150" height="150" viewBox="0 0 150 150" fill="none" xmlns="http://www.w3.org/2000/svg">
<path d="M75 0C89.8336 6.48397e-07 104.334 4.39867 116.668 12.6398C129.001 20.8809 138.614 32.5943 144.291 46.2987C149.968 60.0032 151.453 75.0832 148.559 89.6318C145.665 104.18 138.522 117.544 128.033 128.033C117.544 138.522 104.18 145.665 89.6318 148.559C75.0832 151.453 60.0032 149.967 46.2987 144.291C32.5943 138.614 20.8809 129.001 12.6398 116.668C4.39867 104.334 -4.13412e-06 89.8336 0 75H24C24 85.0868 26.9911 94.9472 32.5951 103.334C38.199 111.721 46.1641 118.258 55.4831 122.118C64.8022 125.978 75.0566 126.988 84.9496 125.02C94.8426 123.052 103.93 118.195 111.062 111.062C118.195 103.93 123.052 94.8426 125.02 84.9496C126.988 75.0566 125.978 64.8022 122.118 55.4831C118.258 46.1641 111.721 38.199 103.334 32.595C94.9472 26.9911 85.0869 24 75 24V0Z" fill="#C23282"/>
<path d="M9.2926e-05 57.0065C9.2926e-05 50.3755 5.37557 45 12.0066 45C18.6376 45 24.0131 50.3755 24.0131 57.0065C24.0131 63.6375 18.6376 69.013 12.0066 69.013C5.37557 69.013 9.2926e-05 63.6375 9.2926e-05 57.0065Z" fill="#C23282"/>
</svg>
