<!-- (copyrighted, just in case you had plans) -->
<svg width="48" height="48" viewBox="0 0 797 289" fill="none" xmlns="http://www.w3.org/2000/svg">
    <path
        d="M362.069 2.27999V129H333.461V54.408L334.709 33.192L329.813 57.48L308.501 118.824H280.373L259.157 57.48L254.357 33.192L255.605 54.408V129H226.901V2.27999H267.221L292.757 86.856L294.485 96.936L296.213 86.856L321.749 2.27999H362.069ZM386.024 129V50.184H415.208V129H386.024ZM401 33.96C396.392 33.96 392.488 32.36 389.288 29.16C386.088 25.896 384.488 22.024 384.488 17.544C384.488 13.064 386.088 9.19199 389.288 5.92799C392.552 2.59999 396.456 0.935989 401 0.935989C404.008 0.935989 406.76 1.70399 409.256 3.23999C411.752 4.71199 413.768 6.696 415.304 9.192C416.84 11.688 417.608 14.472 417.608 17.544C417.608 22.024 415.976 25.896 412.712 29.16C409.448 32.36 405.544 33.96 401 33.96ZM489.554 47.88C495.058 47.88 500.434 49 505.682 51.24C510.93 53.48 515.25 57.032 518.642 61.896C522.034 66.696 523.73 73.032 523.73 80.904V129H494.45V85.704C494.45 80.072 493.106 75.848 490.418 73.032C487.73 70.152 484.21 68.712 479.858 68.712C476.978 68.712 474.258 69.48 471.698 71.016C469.202 72.488 467.154 74.6 465.554 77.352C464.018 80.04 463.25 83.144 463.25 86.664V129H434.066V50.184H463.25V61.8C464.018 59.688 465.618 57.576 468.05 55.464C470.546 53.288 473.65 51.496 477.362 50.088C481.138 48.616 485.202 47.88 489.554 47.88ZM541.649 129V50.184H570.833V129H541.649ZM556.625 33.96C552.017 33.96 548.113 32.36 544.913 29.16C541.713 25.896 540.113 22.024 540.113 17.544C540.113 13.064 541.713 9.19199 544.913 5.92799C548.177 2.59999 552.081 0.935989 556.625 0.935989C559.633 0.935989 562.385 1.70399 564.881 3.23999C567.377 4.71199 569.393 6.696 570.929 9.192C572.465 11.688 573.233 14.472 573.233 17.544C573.233 22.024 571.601 25.896 568.337 29.16C565.073 32.36 561.169 33.96 556.625 33.96ZM104.694 169.872H209.682V182.976C209.682 197.744 207.186 211.524 202.194 224.316C197.306 237.108 190.286 248.34 181.134 258.012C171.982 267.684 161.062 275.224 148.374 280.632C135.686 286.04 121.646 288.744 106.254 288.744C90.3419 288.744 75.8858 286.04 62.8858 280.632C49.9898 275.12 38.8618 267.476 29.5018 257.7C20.1418 247.924 12.9658 236.588 7.97384 223.692C2.98184 210.692 0.485844 196.756 0.485844 181.884C0.485844 167.116 2.98184 153.284 7.97384 140.388C12.9658 127.388 20.1418 116.052 29.5018 106.38C38.8618 96.604 49.9898 89.012 62.8858 83.604C75.8858 78.092 90.3419 75.336 106.254 75.336C119.254 75.336 130.694 76.74 140.574 79.548C150.558 82.356 159.138 86.1 166.314 90.78C173.49 95.46 179.574 100.608 184.566 106.224C189.558 111.736 193.718 117.144 197.046 122.448L152.742 143.352C148.478 136.8 142.654 131.08 135.27 126.192C127.99 121.304 118.318 118.86 106.254 118.86C97.8298 118.86 90.0818 120.524 83.0099 123.852C76.0418 127.18 70.0098 131.756 64.9138 137.58C59.8178 143.3 55.8658 150.008 53.0578 157.704C50.3538 165.296 49.0018 173.356 49.0018 181.884C49.0018 190.516 50.3538 198.628 53.0578 206.22C55.8658 213.812 59.8178 220.52 64.9138 226.344C70.0098 232.168 76.0418 236.744 83.0099 240.072C90.0818 243.296 97.8298 244.908 106.254 244.908C113.638 244.908 120.346 243.972 126.378 242.1C132.41 240.228 137.61 237.524 141.978 233.988C146.45 230.452 149.934 226.292 152.43 221.508C155.03 216.62 156.59 211.264 157.11 205.44H104.694V169.872ZM335.996 285V264.252C335.06 266.332 332.668 269.348 328.82 273.3C325.076 277.252 320.084 280.84 313.844 284.064C307.604 287.184 300.324 288.744 292.004 288.744C279.524 288.744 268.604 285.728 259.244 279.696C249.884 273.56 242.604 265.396 237.404 255.204C232.204 244.908 229.604 233.52 229.604 221.04C229.604 208.56 232.204 197.224 237.404 187.032C242.604 176.736 249.884 168.52 259.244 162.384C268.604 156.248 279.524 153.18 292.004 153.18C300.012 153.18 307.032 154.48 313.064 157.08C319.096 159.576 323.984 162.592 327.728 166.128C331.472 169.56 334.072 172.732 335.528 175.644V156.924H382.64V285H335.996ZM276.092 221.04C276.092 226.864 277.444 232.116 280.148 236.796C282.852 241.372 286.44 244.96 290.912 247.56C295.488 250.16 300.532 251.46 306.044 251.46C311.764 251.46 316.808 250.16 321.176 247.56C325.544 244.96 328.976 241.372 331.472 236.796C334.072 232.116 335.372 226.864 335.372 221.04C335.372 215.216 334.072 210.016 331.472 205.44C328.976 200.76 325.544 197.12 321.176 194.52C316.808 191.816 311.764 190.464 306.044 190.464C300.532 190.464 295.488 191.816 290.912 194.52C286.44 197.12 282.852 200.76 280.148 205.44C277.444 210.016 276.092 215.216 276.092 221.04ZM588.857 153.18C598.529 153.18 607.057 155.208 614.441 159.264C621.825 163.216 627.597 169.352 631.757 177.672C636.021 185.992 638.153 196.704 638.153 209.808V285H591.509V216.984C591.509 208.04 590.157 200.812 587.453 195.3C584.749 189.788 579.393 187.032 571.385 187.032C566.601 187.032 562.389 188.28 558.749 190.776C555.109 193.272 552.301 196.756 550.325 201.228C548.349 205.596 547.361 210.848 547.361 216.984V285H503.837V216.984C503.837 208.04 502.329 200.812 499.313 195.3C496.401 189.788 491.201 187.032 483.713 187.032C478.929 187.032 474.717 188.28 471.077 190.776C467.437 193.168 464.629 196.6 462.653 201.072C460.781 205.44 459.845 210.744 459.845 216.984V285H412.733V156.924H459.845V175.176C461.093 171.952 463.797 168.676 467.957 165.348C472.221 161.916 477.473 159.056 483.713 156.768C489.953 154.376 496.557 153.18 503.525 153.18C511.117 153.18 517.461 154.324 522.557 156.612C527.653 158.796 531.813 161.76 535.037 165.504C538.365 169.248 541.017 173.304 542.993 177.672C544.449 173.928 547.309 170.184 551.573 166.44C555.941 162.592 561.349 159.42 567.797 156.924C574.349 154.428 581.369 153.18 588.857 153.18ZM703.376 231.024C703.688 235.6 705.144 239.656 707.744 243.192C710.344 246.728 713.932 249.536 718.508 251.616C723.188 253.592 728.7 254.58 735.044 254.58C741.076 254.58 746.484 253.956 751.268 252.708C756.156 251.46 760.368 249.9 763.904 248.028C767.544 246.156 770.352 244.232 772.328 242.256L790.736 271.584C788.136 274.392 784.444 277.148 779.66 279.852C774.98 282.452 768.792 284.584 761.096 286.248C753.4 287.912 743.676 288.744 731.924 288.744C717.78 288.744 705.196 286.092 694.172 280.788C683.148 275.484 674.464 267.684 668.12 257.388C661.776 247.092 658.604 234.508 658.604 219.636C658.604 207.156 661.308 195.924 666.716 185.94C672.228 175.852 680.184 167.896 690.584 162.072C700.984 156.144 713.516 153.18 728.18 153.18C742.116 153.18 754.18 155.728 764.372 160.824C774.668 165.92 782.572 173.512 788.084 183.6C793.7 193.584 796.508 206.064 796.508 221.04C796.508 221.872 796.456 223.536 796.352 226.032C796.352 228.528 796.248 230.192 796.04 231.024H703.376ZM751.892 206.22C751.788 202.892 750.904 199.616 749.24 196.392C747.576 193.064 745.08 190.36 741.752 188.28C738.424 186.096 734.16 185.004 728.96 185.004C723.76 185.004 719.34 186.044 715.7 188.124C712.164 190.1 709.46 192.7 707.588 195.924C705.716 199.148 704.676 202.58 704.468 206.22H751.892Z"
        fill="#4c7eef"></path>
</svg>