<svg width="1034" height="394" viewBox="0 0 1034 394" fill="none" xmlns="http://www.w3.org/2000/svg">
<path d="M60.5887 1.68742C61.6464 0.610534 63.0925 0.00390625 64.6019 0.00390625H243.93C247.036 0.00390625 249.555 2.5223 249.555 5.62891V57.9414C249.555 61.048 247.036 63.5664 243.93 63.5664H91.0549C89.5363 63.5664 88.0823 64.1804 87.0233 65.2688L70.0231 82.7413C69.0014 83.7914 68.4297 85.1987 68.4297 86.6639V156.941C68.4297 160.048 70.9481 162.566 74.0547 162.566H181.492C184.599 162.566 187.117 165.085 187.117 168.191V220.504C187.117 223.611 184.599 226.129 181.492 226.129H74.0547C70.9481 226.129 68.4297 228.647 68.4297 231.754V388.129C68.4297 391.236 65.9113 393.754 62.8047 393.754H5.99218C2.88558 393.754 0.367188 391.236 0.367188 388.129V65.3043C0.367188 63.83 0.945992 62.4146 1.97904 61.3628L60.5887 1.68742Z" fill="white"/>
<path d="M518.808 1.67503C519.865 0.605704 521.306 0.00390625 522.809 0.00390625H597.748C602.715 0.00390625 605.244 5.97234 601.789 9.54137L460.611 155.374C458.772 157.274 458.504 160.199 459.969 162.401L608.022 385.014C610.509 388.752 607.828 393.754 603.338 393.754H541.989C540.132 393.754 538.395 392.838 537.347 391.306L413.44 210.294C411.462 207.405 407.355 207.005 404.857 209.457L380.394 233.475C379.317 234.533 378.71 235.979 378.71 237.489V388.129C378.71 391.236 376.192 393.754 373.085 393.754H316.272C313.166 393.754 310.647 391.236 310.647 388.129V5.6289C310.647 2.52229 313.166 0.00390625 316.272 0.00390625H373.085C376.192 0.00390625 378.71 2.5223 378.71 5.62891V129.747C378.71 134.774 384.802 137.277 388.336 133.701L518.808 1.67503Z" fill="white"/>
<path fill-rule="evenodd" clip-rule="evenodd" d="M1033.02 119.204C1033.02 111.956 1029.02 105.112 1022.61 101.486L853.32 2.82159C850.519 1.211 847.317 0.405707 844.115 0.00392771C843.715 0.00392771 842.515 0.00392771 842.515 0.00392771C839.313 0.00392771 836.111 1.211 833.309 2.82159L663.616 101.083C657.212 104.708 653.21 111.555 653.21 119.204L653.61 383.384C653.61 387.009 655.611 390.632 658.813 392.243C662.015 394.258 666.017 394.258 668.819 392.243L769.675 334.253C776.078 330.629 780.08 323.783 780.08 316.534V192.901C780.08 185.653 784.082 178.806 790.486 175.183L833.309 150.214C836.512 148.199 840.113 147.394 843.715 147.394C847.317 147.394 850.919 148.199 853.721 150.214L896.544 175.183C902.947 178.806 906.951 185.653 906.951 192.901V316.534C906.951 323.783 910.953 330.629 917.356 334.253L1017.41 392.243C1020.61 394.258 1024.61 394.258 1027.82 392.243C1031.02 390.632 1033.02 387.009 1033.02 383.384V119.204Z" fill="white"/>
</svg>
