<svg
    width="100"
    height="100"
    viewBox="0 0 100 100"
    fill="none"
    xmlns="http://www.w3.org/2000/svg"
>
    <path
        d="M0.236082 45.1855C0.0834907 44.7141 0 44.2115 0 43.6893V4.85437C5.00393e-07 2.17338 2.17338 0 4.85437 0L43.6893 0C44.2108 0 44.7128 0.0829554 45.1836 0.235133C43.532 0.395015 41.8842 0.634743 40.2467 0.960444C30.5477 2.8897 21.6382 7.65202 14.6456 14.6446C7.65297 21.6373 2.89065 30.5467 0.961393 40.2458C0.635506 41.8841 0.39596 43.533 0.236082 45.1855Z"
        fill="#fff"
    />
    <path
        d="M16.0336 48.5437C16.1079 46.812 16.3137 45.0813 16.6547 43.367C17.9666 36.7716 21.2045 30.7135 25.9595 25.9585C30.7145 21.2036 36.7726 17.9656 43.3679 16.6537C45.0819 16.3128 46.8123 16.107 48.5437 16.0327V43.6893C48.5437 46.3703 46.3703 48.5437 43.6893 48.5437H16.0336Z"
        fill="#fff"
    />
    <path
        d="M56.3107 100C53.6297 100 51.4563 97.8266 51.4563 95.1456V56.3107C51.4563 53.6297 53.6297 51.4563 56.3107 51.4563H95.1456C97.8266 51.4563 100 53.6297 100 56.3107V95.1456C100 97.8266 97.8266 100 95.1456 100H56.3107Z"
        fill="#fff"
    />
    <path
        d="M48.5437 83.9683C42.3301 83.7018 36.2982 81.7356 31.1116 78.2701C25.5203 74.5341 21.1622 69.2237 18.5888 63.011C17.0597 59.3192 16.2021 55.4071 16.0327 51.4563H43.6893C46.3703 51.4563 48.5437 53.6297 48.5437 56.3107V83.9683Z"
        fill="#fff"
    />
    <path
        d="M4.85437 100C2.17338 100 0 97.8266 0 95.1456V56.3107C0 55.7902 0.0834878 55.2893 0.235133 54.8193C0.709218 59.7149 1.90402 64.5404 3.8067 69.134C7.59101 78.2701 13.9998 86.0791 22.222 91.5731C29.1023 96.1704 36.9947 98.973 45.1817 99.7658C44.7115 99.9176 44.21 100 43.6893 100H4.85437Z"
        fill="#fff"
    />
</svg>
