<svg width="48" height="48" viewBox="0 0 200 162" fill="none" xmlns="http://www.w3.org/2000/svg">
    <path fill-rule="evenodd" clip-rule="evenodd"
        d="M156.696 30.3307V161.462H178.434C189.801 161.462 199.012 152.124 199.012 140.625V4.63925C199.012 0.710431 194.499 -1.42882 191.508 1.08069L156.696 30.3307Z"
        fill="#BEA7FF"></path>
    <path fill-rule="evenodd" clip-rule="evenodd"
        d="M126.378 55.8368L86.6648 91.3606C79.8935 97.4081 69.7873 97.5521 62.8534 91.7102L0 38.8051V4.65937C0 0.730556 4.51421 -1.42926 7.50337 1.08024L86.3599 67.3558C93.9852 73.7736 105.047 73.7736 112.672 67.3558L126.378 55.8368Z"
        fill="#BEA7FF"></path>
    <path
        d="M156.696 30.3516L126.378 55.8375L126.398 55.8373L86.6648 91.3613C79.8935 97.4088 69.7873 97.5528 62.8534 91.7109L0 38.8058V140.626C0 152.124 9.21143 161.463 20.5784 161.463H156.696V30.3516Z"
        fill="#6D4AFF"></path>
</svg>