<svg width="50" height="50" viewBox="0 0 50 50" fill="none" xmlns="http://www.w3.org/2000/svg">
<g clip-path="url(#clip0_1078_175)">
<path d="M25.0008 29.754C27.4621 29.754 29.4573 27.7587 29.4573 25.2974C29.4573 22.8363 27.4621 20.841 25.0008 20.841C22.5395 20.841 20.5442 22.8363 20.5442 25.2974C20.5442 27.7587 22.5395 29.754 25.0008 29.754Z" fill="#61DAFB"/>
<path fill-rule="evenodd" clip-rule="evenodd" d="M7.70321 17.8262C12.1832 16.1156 18.2989 15.0804 25 15.0804C31.7011 15.0804 37.8168 16.1156 42.2968 17.8262C44.533 18.68 46.4176 19.7232 47.7622 20.937C49.1066 22.1506 50 23.6224 50 25.2978C50 26.9731 49.1066 28.4449 47.7622 29.6586C46.4176 30.8723 44.533 31.9156 42.2968 32.7694C37.8168 34.4799 31.7011 35.5151 25 35.5151C18.2989 35.5151 12.1832 34.4799 7.70321 32.7694C5.46694 31.9156 3.58237 30.8723 2.23782 29.6586C0.893374 28.4449 0 26.9731 0 25.2978C0 23.6224 0.89338 22.1506 2.23782 20.937C3.58238 19.7232 5.46695 18.68 7.70321 17.8262ZM3.69451 22.5507C2.61881 23.5217 2.17391 24.4518 2.17391 25.2978C2.17391 26.1437 2.61882 27.0738 3.69451 28.0449C4.77008 29.0158 6.3875 29.9401 8.47864 30.7385C12.6535 32.3325 18.4943 33.3412 25 33.3412C31.5056 33.3412 37.3465 32.3325 41.5213 30.7385C43.6125 29.9401 45.2299 29.0158 46.3055 28.0449C47.3812 27.0738 47.8261 26.1437 47.8261 25.2978C47.8261 24.4518 47.3812 23.5217 46.3055 22.5507C45.2299 21.5797 43.6125 20.6555 41.5213 19.8571C37.3465 18.2631 31.5056 17.2544 25 17.2544C18.4943 17.2544 12.6535 18.2631 8.47864 19.8571C6.38749 20.6555 4.77008 21.5797 3.69451 22.5507Z" fill="#61DAFB"/>
<path fill-rule="evenodd" clip-rule="evenodd" d="M22.8231 6.58257C26.5444 9.60709 30.4988 14.3858 33.8494 20.1892C37.2 25.9926 39.3613 31.8065 40.1199 36.5415C40.4986 38.9051 40.5374 41.0587 40.1585 42.83C39.7797 44.6012 38.9518 46.1107 37.5009 46.9484C36.05 47.7861 34.3287 47.7483 32.6054 47.1909C30.882 46.6333 29.0362 45.5229 27.1786 44.0131C23.4572 40.9886 19.5028 36.2099 16.1523 30.4064C12.8017 24.6031 10.6404 18.7893 9.88181 14.0542C9.50314 11.6906 9.46431 9.53694 9.84318 7.76564C10.222 5.99449 11.0499 4.48491 12.5008 3.64722C13.9518 2.80954 15.6731 2.84733 17.3963 3.40482C19.1197 3.96236 20.9655 5.07284 22.8231 6.58257ZM16.7272 5.47319C15.3484 5.02714 14.3204 5.10692 13.5878 5.52989C12.8552 5.95286 12.2721 6.80324 11.969 8.22033C11.6659 9.63728 11.6742 11.5001 12.0284 13.7103C12.7353 18.1228 14.7822 23.6855 18.035 29.3195C21.2878 34.9536 25.0818 39.5076 28.5497 42.3261C30.2867 43.7379 31.8959 44.6765 33.2745 45.1225C34.6533 45.5685 35.6813 45.4887 36.4139 45.0658C37.1465 44.6428 37.7296 43.7924 38.0327 42.3753C38.3358 40.9584 38.3275 39.0956 37.9734 36.8854C37.2664 32.4729 35.2196 26.9102 31.9667 21.2761C28.7138 15.6421 24.9198 11.0881 21.452 8.26957C19.7149 6.85781 18.1058 5.91919 16.7272 5.47319Z" fill="#61DAFB"/>
<path fill-rule="evenodd" clip-rule="evenodd" d="M32.6054 3.40524C34.3287 2.84775 36.05 2.80996 37.5009 3.64765C38.9518 4.48533 39.7797 5.99491 40.1585 7.76605C40.5374 9.53735 40.4986 11.691 40.1199 14.0546C39.3613 18.7897 37.2 24.6036 33.8494 30.4069C30.4988 36.2103 26.5444 40.9891 22.8231 44.0136C20.9655 45.5233 19.1197 46.6338 17.3963 47.1913C15.673 47.7488 13.9518 47.7865 12.5008 46.9489C11.0499 46.1112 10.222 44.6016 9.84318 42.8305C9.46431 41.0592 9.50314 38.9055 9.88181 36.5419C10.6404 31.8069 12.8018 25.993 16.1523 20.1896C19.5028 14.3862 23.4572 9.60751 27.1786 6.58299C29.0362 5.07325 30.882 3.96278 32.6054 3.40524ZM28.5497 8.27C25.0818 11.0885 21.2878 15.6425 18.035 21.2765C14.7822 26.9106 12.7353 32.4733 12.0284 36.8858C11.6742 39.096 11.6659 40.9588 11.969 42.3758C12.2721 43.7929 12.8552 44.6432 13.5878 45.0662C14.3204 45.4892 15.3484 45.569 16.7272 45.1229C18.1058 44.6769 19.7149 43.7383 21.452 42.3266C24.9198 39.5081 28.7138 34.9541 31.9667 29.3199C35.2196 23.6859 37.2664 18.1232 37.9734 13.7107C38.3275 11.5005 38.3358 9.6377 38.0327 8.22075C37.7296 6.80365 37.1465 5.95327 36.4139 5.53031C35.6813 5.10735 34.6533 5.02756 33.2745 5.47361C31.8959 5.91962 30.2868 6.85823 28.5497 8.27Z" fill="#61DAFB"/>
</g>
<defs>
<clipPath id="clip0_1078_175">
<rect width="50" height="50" fill="white"/>
</clipPath>
</defs>
</svg>
