<svg width="72" height="63" viewBox="0 0 72 63" fill="none" xmlns="http://www.w3.org/2000/svg">
<path d="M15.89 14.26C16.1677 20.2969 17.6823 26.2125 20.34 31.64C24.84 40.14 31.05 45.64 36.18 47.77C41.559 45.2825 46.1297 41.332 49.37 36.37H34.84C30.6575 32.7245 28.0131 27.6286 27.44 22.11H70.08C68.1766 30.7382 64.4949 38.8747 59.27 46C53.3533 53.7412 45.3548 59.6377 36.21 63H36.07C20.78 56.91 12.55 47.31 7.12 36.48C3.64 29.54 0 16.94 0 0H72C71.9973 4.77076 71.6632 9.53556 71 14.26H15.89Z" fill="#F2C32F"/>
</svg>
