<svg width="500" height="500" viewBox="0 0 500 500" fill="none" xmlns="http://www.w3.org/2000/svg">
    <g clip-path="url(#clip0_963_263)">
        <path d="M-225 0H725V500H-225" fill="#B31942" />
        <path fill-rule="evenodd" clip-rule="evenodd"
            d="M725 76.9231H-225V38.4615H725V76.9231ZM-225 115.385H725V153.846H-225V115.385ZM725 230.769H-225V192.308H725V230.769ZM-225 269.231H725V307.692H-225V269.231ZM725 384.615H-225V346.154H725V384.615ZM-225 423.077H725V461.539H-225V423.077Z"
            fill="white" />
        <path d="M-225 0H155V269.231H-225" fill="#0A3161" />
        <path d="M-193.334 11.5404L-184.291 39.3714L-207.966 22.1709H-178.702L-202.377 39.3714L-193.334 11.5404Z"
            fill="white" />
        <path d="M-193.334 65.3865L-184.291 93.2175L-207.966 76.017H-178.702L-202.377 93.2175L-193.334 65.3865Z"
            fill="white" />
        <path d="M-193.334 119.233L-184.291 147.064L-207.966 129.863H-178.702L-202.377 147.064L-193.334 119.233Z"
            fill="white" />
        <path d="M-193.334 173.079L-184.291 200.91L-207.966 183.709H-178.702L-202.377 200.91L-193.334 173.079Z"
            fill="white" />
        <path d="M-193.334 226.925L-184.291 254.756L-207.966 237.555H-178.702L-202.377 254.756L-193.334 226.925Z"
            fill="white" />
        <path d="M-161.667 38.4623L-152.624 66.2933L-176.299 49.0928H-147.035L-170.71 66.2933L-161.667 38.4623Z"
            fill="white" />
        <path d="M-161.667 92.3084L-152.624 120.139L-176.299 102.939H-147.035L-170.71 120.139L-161.667 92.3084Z"
            fill="white" />
        <path d="M-161.667 146.155L-152.624 173.986L-176.299 156.785H-147.035L-170.71 173.986L-161.667 146.155Z"
            fill="white" />
        <path d="M-161.667 200.001L-152.624 227.832L-176.299 210.631H-147.035L-170.71 227.832L-161.667 200.001Z"
            fill="white" />
        <path d="M-130 11.5404L-120.957 39.3714L-144.631 22.1709H-115.368L-139.042 39.3714L-130 11.5404Z"
            fill="white" />
        <path d="M-130 65.3865L-120.957 93.2175L-144.631 76.017H-115.368L-139.042 93.2175L-130 65.3865Z" fill="white" />
        <path d="M-130 119.233L-120.957 147.064L-144.631 129.863H-115.368L-139.042 147.064L-130 119.233Z"
            fill="white" />
        <path d="M-130 173.079L-120.957 200.91L-144.631 183.709H-115.368L-139.042 200.91L-130 173.079Z" fill="white" />
        <path d="M-130 226.925L-120.957 254.756L-144.632 237.555H-115.368L-139.043 254.756L-130 226.925Z"
            fill="white" />
        <path d="M-98.3335 38.4623L-89.2907 66.2933L-112.965 49.0928H-83.7019L-107.376 66.2933L-98.3335 38.4623Z"
            fill="white" />
        <path d="M-98.3335 92.3084L-89.2907 120.139L-112.965 102.939H-83.7019L-107.376 120.139L-98.3335 92.3084Z"
            fill="white" />
        <path d="M-98.3335 146.155L-89.2907 173.986L-112.965 156.785H-83.7019L-107.376 173.986L-98.3335 146.155Z"
            fill="white" />
        <path d="M-98.3335 200.001L-89.2907 227.832L-112.965 210.631H-83.7019L-107.376 227.832L-98.3335 200.001Z"
            fill="white" />
        <path d="M-66.6669 11.5404L-57.624 39.3714L-81.2985 22.1709H-52.0352L-75.7097 39.3714L-66.6669 11.5404Z"
            fill="white" />
        <path d="M-66.6669 65.3865L-57.624 93.2175L-81.2985 76.017H-52.0352L-75.7097 93.2175L-66.6669 65.3865Z"
            fill="white" />
        <path d="M-66.6669 119.233L-57.624 147.064L-81.2985 129.863H-52.0352L-75.7097 147.064L-66.6669 119.233Z"
            fill="white" />
        <path d="M-66.6669 173.079L-57.624 200.91L-81.2985 183.709H-52.0352L-75.7097 200.91L-66.6669 173.079Z"
            fill="white" />
        <path d="M-66.6669 226.925L-57.624 254.756L-81.2985 237.555H-52.0352L-75.7097 254.756L-66.6669 226.925Z"
            fill="white" />
        <path d="M-35.0005 38.4623L-25.9576 66.2933L-49.6321 49.0928H-20.3688L-44.0433 66.2933L-35.0005 38.4623Z"
            fill="white" />
        <path d="M-35.0005 92.3084L-25.9576 120.139L-49.6321 102.939H-20.3688L-44.0433 120.139L-35.0005 92.3084Z"
            fill="white" />
        <path d="M-35.0005 146.155L-25.9576 173.986L-49.6321 156.785H-20.3688L-44.0433 173.986L-35.0005 146.155Z"
            fill="white" />
        <path d="M-35.0005 200.001L-25.9576 227.832L-49.6321 210.631H-20.3688L-44.0433 227.832L-35.0005 200.001Z"
            fill="white" />
        <path d="M-3.33397 11.5404L5.70888 39.3714L-17.9656 22.1709H11.2977L-12.3768 39.3714L-3.33397 11.5404Z"
            fill="white" />
        <path d="M-3.33397 65.3865L5.70888 93.2175L-17.9656 76.017H11.2977L-12.3768 93.2175L-3.33397 65.3865Z"
            fill="white" />
        <path d="M-3.33397 119.233L5.70888 147.064L-17.9656 129.863H11.2977L-12.3768 147.064L-3.33397 119.233Z"
            fill="white" />
        <path d="M-3.33397 173.079L5.70888 200.91L-17.9656 183.709H11.2977L-12.3768 200.91L-3.33397 173.079Z"
            fill="white" />
        <path d="M-3.33382 226.925L5.70903 254.756L-17.9655 237.555H11.2978L-12.3767 254.756L-3.33382 226.925Z"
            fill="white" />
        <path d="M28.3331 38.4623L37.3759 66.2933L13.7014 49.0928H42.9647L19.2902 66.2933L28.3331 38.4623Z"
            fill="white" />
        <path d="M28.3331 92.3084L37.3759 120.139L13.7014 102.939H42.9647L19.2902 120.139L28.3331 92.3084Z"
            fill="white" />
        <path d="M28.3331 146.155L37.3759 173.986L13.7014 156.785H42.9647L19.2902 173.986L28.3331 146.155Z"
            fill="white" />
        <path d="M28.3331 200.001L37.3759 227.832L13.7014 210.631H42.9647L19.2902 227.832L28.3331 200.001Z"
            fill="white" />
        <path d="M60.0005 11.54L69.0434 39.371L45.3689 22.1705H74.6321L50.9576 39.371L60.0005 11.54Z" fill="white" />
        <path d="M60.0005 65.3861L69.0434 93.2172L45.3689 76.0166H74.6321L50.9576 93.2172L60.0005 65.3861Z"
            fill="white" />
        <path d="M60.0005 119.232L69.0434 147.063L45.3689 129.863H74.6321L50.9576 147.063L60.0005 119.232Z"
            fill="white" />
        <path d="M60.0005 173.078L69.0434 200.909L45.3689 183.709H74.6321L50.9576 200.909L60.0005 173.078Z"
            fill="white" />
        <path d="M60.0003 226.924L69.0432 254.755L45.3687 237.555H74.6319L50.9574 254.755L60.0003 226.924Z"
            fill="white" />
        <path d="M91.6666 38.4619L100.709 66.2929L77.035 49.0924H106.298L82.6237 66.2929L91.6666 38.4619Z"
            fill="white" />
        <path d="M91.6666 92.3081L100.709 120.139L77.035 102.939H106.298L82.6237 120.139L91.6666 92.3081Z"
            fill="white" />
        <path d="M91.6666 146.154L100.709 173.985L77.035 156.785H106.298L82.6237 173.985L91.6666 146.154Z"
            fill="white" />
        <path d="M91.6666 200L100.709 227.831L77.035 210.631H106.298L82.6237 227.831L91.6666 200Z" fill="white" />
        <path d="M123.333 11.5396L132.376 39.3706L108.702 22.1701H137.965L114.29 39.3706L123.333 11.5396Z"
            fill="white" />
        <path d="M123.333 65.3857L132.376 93.2168L108.702 76.0163H137.965L114.29 93.2168L123.333 65.3857Z"
            fill="white" />
        <path d="M123.333 119.232L132.376 147.063L108.702 129.862H137.965L114.29 147.063L123.333 119.232Z"
            fill="white" />
        <path d="M123.333 173.078L132.376 200.909L108.702 183.709H137.965L114.29 200.909L123.333 173.078Z"
            fill="white" />
        <path d="M123.333 226.924L132.376 254.755L108.702 237.554H137.965L114.29 254.755L123.333 226.924Z"
            fill="white" />
    </g>
    <defs>
        <clipPath id="clip0_963_263">
            <rect width="500" height="500" fill="white" />
        </clipPath>
    </defs>
</svg>