<svg width="50" height="50" viewBox="0 0 50 50" fill="none" xmlns="http://www.w3.org/2000/svg">
<path d="M25.8571 16.6667H16.3333C11.731 16.6667 8 12.9357 8 8.33333C8 3.73095 11.731 0 16.3333 0H25.8571V16.6667Z" fill="#E64A19"/>
<path d="M24.6667 33.3333H16.3333C11.731 33.3333 8 29.6024 8 25C8 20.3976 11.731 16.6667 16.3333 16.6667H24.6667V33.3333Z" fill="#7C4DFF"/>
<path d="M16.3333 50C11.731 50 8 46.269 8 41.6667C8 37.0643 11.731 33.3333 16.3333 33.3333H24.6667V41.6667C24.6667 46.269 20.9357 50 16.3333 50Z" fill="#66BB6A"/>
<path d="M33 16.6667H24.6667L24.6667 0H33C37.6024 0 41.3333 3.73095 41.3333 8.33333C41.3333 12.9357 37.6024 16.6667 33 16.6667Z" fill="#FF7043"/>
<path d="M33 33.3333C37.6024 33.3333 41.3333 29.6024 41.3333 25C41.3333 20.3976 37.6024 16.6667 33 16.6667C28.3976 16.6667 24.6667 20.3976 24.6667 25C24.6667 29.6024 28.3976 33.3333 33 33.3333Z" fill="#29B6F6"/>
</svg>
