<svg width="792" height="512" viewBox="0 0 792 512" fill="none" xmlns="http://www.w3.org/2000/svg">
<g clip-path="url(#clip0_839_108)">
<path d="M181.645 512L33.511 470.877L0.5 100.62H363.234L330.188 470.819L181.645 512Z" fill="#264DE4"/>
<path d="M301.897 447.246L330.137 130.894H181.867V480.523L301.897 447.246Z" fill="#2965F1"/>
<path d="M76.1768 268.217L80.2468 313.627H181.867V268.217H76.1768Z" fill="#EBEBEB"/>
<path d="M67.999 176.305L72.127 221.716H181.867V176.305H181.71H67.999Z" fill="#EBEBEB"/>
<path d="M181.867 386.153L181.668 386.206L131.094 372.55L127.861 336.333H103.286H82.2764L88.6384 407.634L181.658 433.457L181.867 433.399V386.153Z" fill="#EBEBEB"/>
<path d="M85.8672 0H140.867V23H108.867V46H140.867V69H85.8672V0Z" fill="black"/>
<path d="M151.867 0H206.867V20H174.867V24H206.867V70H151.867V49H183.867V45H151.867V0Z" fill="black"/>
<path d="M217.867 0H272.867V20H240.867V24H272.867V70H217.867V49H249.867V45H217.867V0Z" fill="black"/>
<path d="M287.266 268.217L295.464 176.305H181.71V221.716H245.698L241.566 268.217H181.71V313.627H237.628L232.357 372.521L181.71 386.191V433.435L274.804 407.634L275.487 399.962L286.158 280.411L287.266 268.217Z" fill="white"/>
<path d="M791.805 100.62L758.759 470.819L610.216 512L462.082 470.877L429.071 100.62H791.805Z" fill="#E44D26"/>
<path d="M610.438 480.523L730.468 447.246L758.708 130.894H610.438V480.523Z" fill="#F16529"/>
<path d="M546.198 221.716H610.438V176.305H610.281H496.57L497.657 188.488L508.818 313.627H610.438V268.217H550.348L546.198 221.716Z" fill="#EBEBEB"/>
<path d="M556.433 336.333H531.858H510.848L517.21 407.634L610.23 433.457L610.439 433.399V386.153L610.24 386.206L559.666 372.55L556.433 336.333Z" fill="#EBEBEB"/>
<path d="M462.82 0H485.897V22.8H507.007V0H530.085V69.044H507.008V45.924H485.898V69.044H462.821L462.82 0Z" fill="black"/>
<path d="M560.432 22.896H540.116V0H603.836V22.896H583.511V69.044H560.433L560.432 22.896Z" fill="black"/>
<path d="M613.949 0H638.012L652.814 24.26L667.601 0H691.673V69.044H668.691V34.822L652.814 59.371H652.417L636.529 34.822V69.044H613.949V0Z" fill="black"/>
<path d="M703.158 0H726.242V46.222H758.695V69.044H703.158V0Z" fill="black"/>
<path d="M610.281 313.627H666.199L660.928 372.521L610.281 386.191V433.435L703.375 407.634L704.058 399.962L714.729 280.411L715.837 268.217H703.6H610.281V313.627Z" fill="white"/>
<path d="M610.281 221.605V221.716H719.823H719.969L720.88 211.509L722.949 188.488L724.035 176.305H610.281V204.509V221.605Z" fill="white"/>
</g>
<defs>
<clipPath id="clip0_839_108">
<rect width="791.305" height="512" fill="white" transform="translate(0.5)"/>
</clipPath>
</defs>
</svg>
