<svg width="48px" height="48px" viewBox="0 0 513 512" fill="none" xmlns="http://www.w3.org/2000/svg">
    <g clip-path="url(#clip0_839_141)">
        <path
            d="M462.5 0H50.5C22.8858 0 0.5 22.3858 0.5 50V462C0.5 489.614 22.8858 512 50.5 512H462.5C490.114 512 512.5 489.614 512.5 462V50C512.5 22.3858 490.114 0 462.5 0Z"
            fill="#3178C6" />
        <path
            d="M462.5 0H50.5C22.8858 0 0.5 22.3858 0.5 50V462C0.5 489.614 22.8858 512 50.5 512H462.5C490.114 512 512.5 489.614 512.5 462V50C512.5 22.3858 490.114 0 462.5 0Z"
            fill="#3178C6" />
        <path fill-rule="evenodd" clip-rule="evenodd"
            d="M317.439 407.424V457.485C325.577 461.657 335.202 464.785 346.314 466.871C357.426 468.957 369.137 470 381.449 470C393.448 470 404.846 468.853 415.645 466.558C426.444 464.264 435.913 460.483 444.051 455.216C452.189 449.95 458.632 443.066 463.379 434.566C468.126 426.066 470.5 415.559 470.5 403.044C470.5 393.97 469.144 386.018 466.431 379.187C463.718 372.356 459.806 366.281 454.693 360.962C449.581 355.643 443.451 350.871 436.304 346.647C429.157 342.423 421.097 338.434 412.124 334.68C405.551 331.968 399.656 329.335 394.439 326.78C389.222 324.224 384.788 321.617 381.136 318.958C377.484 316.298 374.667 313.482 372.685 310.51C370.703 307.537 369.711 304.174 369.711 300.419C369.711 296.978 370.598 293.875 372.372 291.111C374.146 288.347 376.65 285.975 379.884 283.993C383.119 282.012 387.083 280.473 391.778 279.378C396.474 278.283 401.69 277.736 407.429 277.736C411.602 277.736 416.01 278.049 420.653 278.674C425.296 279.3 429.965 280.265 434.661 281.568C439.356 282.872 443.92 284.515 448.355 286.496C452.789 288.478 456.884 290.772 460.64 293.38V246.604C453.024 243.684 444.703 241.52 435.678 240.112C426.653 238.704 416.297 238 404.612 238C392.717 238 381.449 239.278 370.807 241.833C360.165 244.388 350.801 248.377 342.714 253.8C334.628 259.224 328.238 266.133 323.543 274.529C318.848 282.924 316.5 292.962 316.5 304.643C316.5 319.557 320.804 332.281 329.412 342.815C338.019 353.348 351.087 362.265 368.616 369.566C375.502 372.382 381.919 375.145 387.866 377.857C393.813 380.569 398.952 383.385 403.281 386.305C407.611 389.225 411.028 392.406 413.533 395.848C416.037 399.289 417.289 403.2 417.289 407.581C417.289 410.814 416.506 413.812 414.941 416.576C413.376 419.34 411.002 421.738 407.82 423.772C404.638 425.806 400.673 427.396 395.926 428.543C391.178 429.691 385.623 430.264 379.258 430.264C368.407 430.264 357.661 428.361 347.018 424.554C336.376 420.748 326.516 415.038 317.439 407.424ZM233.28 284.082H297.5V243H118.5V284.082H182.406V467H233.28V284.082Z"
            fill="white" />
    </g>
    <defs>
        <clipPath id="clip0_839_141">
            <rect width="512" height="512" fill="white" transform="translate(0.5)" />
        </clipPath>
    </defs>
</svg>