<svg width="50" height="50" viewBox="0 0 50 50" fill="none" xmlns="http://www.w3.org/2000/svg">
<g clip-path="url(#clip0_1078_171)">
<path d="M50 10.5662L10.5662 0L0 39.4337L39.4337 50L50 10.5662Z" fill="#00A2FF"/>
<path d="M43.7506 14.175L35.8638 12.0618L33.7505 19.9486L41.6373 22.0618L43.7506 14.175Z" fill="white"/>
<path d="M7.95469 35.067L12.9368 36.4019L12.6331 37.5356L6.2574 35.8272L9.07441 25.3141L10.468 25.6876L7.95469 35.067ZM18.7176 38.3378C18.0339 38.8099 17.189 38.9111 16.183 38.6416C15.3503 38.4185 14.7794 38.0075 14.4703 37.4088C14.1673 36.8065 14.1405 36.0305 14.3898 35.0809L15.7518 29.9977L17.0876 30.3557L15.7353 35.4027C15.418 36.587 15.7407 37.308 16.7034 37.5659C17.7239 37.8395 18.5045 37.6411 19.0453 36.9707L20.5679 31.2882L21.9037 31.6461L19.8103 39.4587L18.5395 39.1182L18.7176 38.3378ZM26.6698 41.2967C26.6341 41.1221 26.645 40.8309 26.7027 40.4233C25.9088 40.9019 25.0811 41.0259 24.2195 40.7949C23.4493 40.5885 22.8743 40.2023 22.4946 39.6363C22.121 39.0667 22.0238 38.4473 22.2032 37.7781C22.4211 36.9647 22.8981 36.4166 23.6343 36.134C24.3765 35.8479 25.3084 35.8552 26.4299 36.1557L27.7296 36.504L27.8941 35.8902C28.0192 35.4233 27.9789 35.0152 27.7733 34.6661C27.5689 34.312 27.1947 34.0622 26.6507 33.9164C26.1742 33.7887 25.7424 33.802 25.3554 33.9562C24.9684 34.1105 24.7291 34.3585 24.6375 34.7004L23.2945 34.3405C23.399 33.9505 23.6368 33.6119 24.0079 33.3244C24.3851 33.0333 24.838 32.8451 25.3665 32.7596C25.8997 32.6755 26.4505 32.7096 27.0184 32.8618C27.9186 33.103 28.5631 33.5182 28.9522 34.1074C29.3425 34.6918 29.4415 35.3813 29.2492 36.176L28.2857 39.7717C28.0936 40.489 28.0321 41.0839 28.1016 41.5566L28.0706 41.6721L26.6698 41.2967ZM24.7259 39.6847C25.1447 39.7969 25.5709 39.795 26.0043 39.6789C26.4379 39.563 26.7853 39.3543 27.0467 39.0528L27.4762 37.4498L26.4292 37.1693C24.7926 36.7308 23.8458 36.9904 23.5893 37.9484C23.477 38.3671 23.5288 38.7319 23.7449 39.0426C23.9609 39.3533 24.2879 39.5673 24.7259 39.6847ZM34.9205 42.6795C34.2369 43.1515 33.392 43.2526 32.3859 42.9831C31.5532 42.76 30.9822 42.3491 30.6732 41.7503C30.3702 41.148 30.3433 40.3721 30.5926 39.4226L31.9547 34.3393L33.2905 34.6972L31.9381 39.7444C31.6208 40.9285 31.9435 41.6496 32.9063 41.9076C33.9268 42.181 34.7074 41.9826 35.2481 41.3122L36.7708 35.6297L38.1066 35.9877L36.0132 43.8003L34.7424 43.4597L34.9205 42.6795Z" fill="white"/>
</g>
<defs>
<clipPath id="clip0_1078_171">
<rect width="50" height="50" fill="white"/>
</clipPath>
</defs>
</svg>
