<svg width="48px" height="48px" viewBox="0 0 61 60" fill="none" xmlns="http://www.w3.org/2000/svg">
    <path d="M54.9945 15.8576L16.3574 5.50488L6.00466 44.1419L44.6417 54.4947L54.9945 15.8576Z" fill="#00A2FF" />
    <path d="M48.871 19.3933L41.1436 17.3228L39.073 25.0502L46.8004 27.1207L48.871 19.3933Z" fill="white" />
    <path
        d="M13.7987 39.8634L18.6802 41.1714L18.3826 42.2822L12.1357 40.6083L14.8958 30.3076L16.2612 30.6735L13.7987 39.8634ZM24.3442 43.0682C23.6743 43.5307 22.8465 43.6299 21.8608 43.3658C21.0449 43.1472 20.4855 42.7445 20.1827 42.1579C19.8858 41.5678 19.8595 40.8075 20.1038 39.8771L21.4383 34.8966L22.7471 35.2473L21.4221 40.1924C21.1112 41.3527 21.4274 42.0592 22.3707 42.3119C23.3705 42.5799 24.1354 42.3855 24.6652 41.7287L26.1571 36.161L27.4659 36.5117L25.4148 44.1664L24.1697 43.8328L24.3442 43.0682ZM32.1357 45.9673C32.1007 45.7962 32.1114 45.5109 32.1679 45.1115C31.3901 45.5805 30.5791 45.7019 29.7349 45.4756C28.9803 45.2734 28.4169 44.895 28.0449 44.3404C27.6788 43.7823 27.5836 43.1754 27.7593 42.5198C27.9728 41.7228 28.4402 41.1858 29.1615 40.9089C29.8887 40.6286 30.8018 40.6357 31.9007 40.9301L33.1741 41.2714L33.3353 40.67C33.4578 40.2125 33.4184 39.8127 33.2169 39.4706C33.0166 39.1237 32.65 38.8789 32.117 38.7361C31.6501 38.611 31.227 38.624 30.8479 38.7751C30.4687 38.9263 30.2342 39.1693 30.1445 39.5042L28.8286 39.1516C28.931 38.7695 29.164 38.4377 29.5276 38.156C29.8972 37.8708 30.3409 37.6864 30.8587 37.6027C31.3812 37.5203 31.9208 37.5537 32.4773 37.7028C33.3593 37.9391 33.9908 38.3459 34.372 38.9232C34.7544 39.4958 34.8514 40.1714 34.663 40.95L33.719 44.4731C33.5307 45.1759 33.4705 45.7588 33.5386 46.2219L33.5082 46.3351L32.1357 45.9673ZM30.2311 44.3878C30.6414 44.4978 31.059 44.4959 31.4837 44.3822C31.9085 44.2686 32.2489 44.0641 32.505 43.7687L32.9258 42.1981L31.9 41.9233C30.2964 41.4936 29.3688 41.748 29.1174 42.6866C29.0074 43.0969 29.0582 43.4543 29.2699 43.7587C29.4815 44.0631 29.8019 44.2728 30.2311 44.3878ZM40.2197 47.3221C39.5499 47.7846 38.7221 47.8837 37.7363 47.6196C36.9204 47.401 36.361 46.9984 36.0582 46.4117C35.7613 45.8216 35.735 45.0614 35.9793 44.131L37.3138 39.1504L38.6226 39.5011L37.2976 44.4463C36.9867 45.6065 37.3029 46.313 38.2462 46.5658C39.2461 46.8337 40.0109 46.6393 40.5407 45.9825L42.0326 40.4148L43.3414 40.7655L41.2903 48.4203L40.0452 48.0866L40.2197 47.3221Z"
        fill="white" />
</svg>