<svg width="50" height="50" viewBox="0 0 24 21" fill="none" xmlns="http://www.w3.org/2000/svg">
    <g clip-path="url(#clip0_839_131)">
        <path
            d="M12.0002 12.2816C13.1324 12.2816 14.0502 11.3638 14.0502 10.2316C14.0502 9.09946 13.1324 8.18164 12.0002 8.18164C10.868 8.18164 9.9502 9.09946 9.9502 10.2316C9.9502 11.3638 10.868 12.2816 12.0002 12.2816Z"
            fill="#61DAFB" />
        <path
            d="M12 14.4317C18.0751 14.4317 23 12.5513 23 10.2317C23 7.91214 18.0751 6.03174 12 6.03174C5.92487 6.03174 1 7.91214 1 10.2317C1 12.5513 5.92487 14.4317 12 14.4317Z"
            stroke="#61DAFB" />
        <path
            d="M8.36308 12.3317C11.4006 17.593 15.4916 20.9178 17.5004 19.758C19.5092 18.5982 18.6753 13.393 15.6377 8.13175C12.6001 2.87053 8.50922 -0.454329 6.50039 0.705469C4.49156 1.86527 5.32552 7.07053 8.36308 12.3317Z"
            stroke="#61DAFB" />
        <path
            d="M8.36308 8.13194C5.32552 13.3932 4.49156 18.5984 6.50039 19.7582C8.50922 20.918 12.6001 17.5932 15.6377 12.3319C18.6753 7.07072 19.5092 1.86546 17.5004 0.705664C15.4916 -0.454134 11.4006 2.87072 8.36308 8.13194Z"
            stroke="#61DAFB" />
    </g>
    <defs>
        <clipPath id="clip0_839_131">
            <rect width="23" height="20.4635" fill="white" transform="translate(0.5)" />
        </clipPath>
    </defs>
</svg>